# xmcd CD database file
#
# Track frame offsets:
#	150
#	18762
#	38593
#	59033
#	81807
#	85517
#	112577
#	129488
#	137767
#	161060
#	177043
#	193055
#
# Disc length: 2904 seconds
#
# Revision: 0
# Processed by: cddbd v1.5.2PL0 Copyright (c) Steve Scherf et al.
# Submitted via: CDex 1.70beta2
#
DISCID=8d0b560c
DTITLE=Delago, Manu - Adventions
DYEAR=2009
DGENRE=Jazz
TTITLE0=Hark!
TTITLE1=Maria door een Doornwood trad
TTITLE2=Leise rieselt der weisse Riese
TTITLE3=Knock on Who?
TTITLE4=Prima Nocte
TTITLE5=Still
TTITLE6=Juyful Day in an open Sleigh
TTITLE7=Heidschibumbeidschi - what does that mean?
TTITLE8=Let's get merry, Gentlemen
TTITLE9=Es wird schon gleich dumpa
TTITLE10=C+M+B
TTITLE11=Passing the Winter
EXTD=YEAR: 2009
EXTT0=
EXTT1=
EXTT2=
EXTT3=
EXTT4=
EXTT5=
EXTT6=
EXTT7=
EXTT8=
EXTT9=
EXTT10=
EXTT11=
PLAYORDER=
